<svg width="1377" height="510" viewBox="0 0 1377 510" fill="none" xmlns="http://www.w3.org/2000/svg">
<g opacity="0.3">
<mask id="mask0_310_537" style="mask-type:alpha" maskUnits="userSpaceOnUse" x="0" y="0" width="1377" height="510">
<rect width="1377" height="510" transform="matrix(1 0 0 -1 0 510)" fill="#DB7B7B"/>
</mask>
<g mask="url(#mask0_310_537)">
<ellipse cx="1050.2" cy="659.414" rx="1050.2" ry="659.414" transform="matrix(1 0 0 -1 -723.401 494.062)" fill="url(#paint0_radial_310_537)"/>
<ellipse cx="815.412" cy="511.992" rx="815.412" ry="511.992" transform="matrix(1 0 0 -1 688.5 883.535)" fill="url(#paint1_radial_310_537)"/>
<ellipse cx="500.511" cy="314.268" rx="500.511" ry="314.268" transform="matrix(1 0 0 -1 -434.675 823.77)" fill="url(#paint2_radial_310_537)"/>
</g>
</g>
<g filter="url(#filter0_b_310_537)">
<rect width="1377" height="510" transform="matrix(1 0 0 -1 0 510)" fill="url(#paint3_linear_310_537)"/>
</g>
<defs>
<filter id="filter0_b_310_537" x="-40" y="-40" width="1457" height="590" filterUnits="userSpaceOnUse" color-interpolation-filters="sRGB">
<feFlood flood-opacity="0" result="BackgroundImageFix"/>
<feGaussianBlur in="BackgroundImageFix" stdDeviation="20"/>
<feComposite in2="SourceAlpha" operator="in" result="effect1_backgroundBlur_310_537"/>
<feBlend mode="normal" in="SourceGraphic" in2="effect1_backgroundBlur_310_537" result="shape"/>
</filter>
<radialGradient id="paint0_radial_310_537" cx="0" cy="0" r="1" gradientUnits="userSpaceOnUse" gradientTransform="translate(1050.2 659.414) rotate(90) scale(659.414 1050.2)">
<stop stop-color="#003566"/>
<stop offset="1" stop-color="#003566" stop-opacity="0"/>
</radialGradient>
<radialGradient id="paint1_radial_310_537" cx="0" cy="0" r="1" gradientUnits="userSpaceOnUse" gradientTransform="translate(815.412 511.992) rotate(90) scale(511.992 815.412)">
<stop stop-color="#FFC300"/>
<stop offset="1" stop-color="#FFC300" stop-opacity="0"/>
</radialGradient>
<radialGradient id="paint2_radial_310_537" cx="0" cy="0" r="1" gradientUnits="userSpaceOnUse" gradientTransform="translate(500.511 314.268) rotate(90) scale(314.268 500.511)">
<stop stop-color="#003566"/>
<stop offset="1" stop-color="#003566" stop-opacity="0"/>
</radialGradient>
<linearGradient id="paint3_linear_310_537" x1="46.0058" y1="29.3847" x2="956.365" y2="868.299" gradientUnits="userSpaceOnUse">
<stop stop-color="white" stop-opacity="0.4"/>
<stop offset="1" stop-color="white" stop-opacity="0.1"/>
</linearGradient>
</defs>
</svg>
