<svg width="448" height="490" viewBox="0 0 448 490" fill="none" xmlns="http://www.w3.org/2000/svg">
<g opacity="0.3">
<mask id="mask0_310_529" style="mask-type:alpha" maskUnits="userSpaceOnUse" x="0" y="0" width="448" height="490">
<rect width="448" height="490" transform="matrix(-1 0 0 1 448 0)" fill="#DB7B7B"/>
</mask>
<g mask="url(#mask0_310_529)">
<ellipse cx="341.677" cy="633.555" rx="341.677" ry="633.555" transform="matrix(-1 0 0 1 683.355 15.3125)" fill="url(#paint0_radial_310_529)"/>
<ellipse cx="265.29" cy="491.914" rx="265.29" ry="491.914" transform="matrix(-1 0 0 1 224 -358.887)" fill="url(#paint1_radial_310_529)"/>
<ellipse cx="162.839" cy="301.943" rx="162.839" ry="301.943" transform="matrix(-1 0 0 1 589.419 -301.465)" fill="url(#paint2_radial_310_529)"/>
</g>
</g>
<g filter="url(#filter0_b_310_529)">
<rect width="448" height="490" transform="matrix(-1 0 0 1 448 0)" fill="url(#paint3_linear_310_529)"/>
</g>
<defs>
<filter id="filter0_b_310_529" x="-40" y="-40" width="528" height="570" filterUnits="userSpaceOnUse" color-interpolation-filters="sRGB">
<feFlood flood-opacity="0" result="BackgroundImageFix"/>
<feGaussianBlur in="BackgroundImageFix" stdDeviation="20"/>
<feComposite in2="SourceAlpha" operator="in" result="effect1_backgroundBlur_310_529"/>
<feBlend mode="normal" in="SourceGraphic" in2="effect1_backgroundBlur_310_529" result="shape"/>
</filter>
<radialGradient id="paint0_radial_310_529" cx="0" cy="0" r="1" gradientUnits="userSpaceOnUse" gradientTransform="translate(341.677 633.555) rotate(90) scale(633.555 341.677)">
<stop stop-color="#003566"/>
<stop offset="1" stop-color="#003566" stop-opacity="0"/>
</radialGradient>
<radialGradient id="paint1_radial_310_529" cx="0" cy="0" r="1" gradientUnits="userSpaceOnUse" gradientTransform="translate(265.29 491.914) rotate(90) scale(491.914 265.29)">
<stop stop-color="#FFC300"/>
<stop offset="1" stop-color="#FFC300" stop-opacity="0"/>
</radialGradient>
<radialGradient id="paint2_radial_310_529" cx="0" cy="0" r="1" gradientUnits="userSpaceOnUse" gradientTransform="translate(162.839 301.943) rotate(90) scale(301.943 162.839)">
<stop stop-color="#003566"/>
<stop offset="1" stop-color="#003566" stop-opacity="0"/>
</radialGradient>
<linearGradient id="paint3_linear_310_529" x1="14.9678" y1="28.2324" x2="514.066" y2="183.975" gradientUnits="userSpaceOnUse">
<stop stop-color="white" stop-opacity="0.4"/>
<stop offset="1" stop-color="white" stop-opacity="0.1"/>
</linearGradient>
</defs>
</svg>
